<?xml version="1.0" encoding="UTF-8"?><svg xmlns="http://www.w3.org/2000/svg" viewBox="0 0 424.46 324.61"><defs><style>.cls-1,.cls-2{fill:#c7d8ea;}.cls-3{fill:#0fe;}.cls-4{isolation:isolate;}.cls-5{fill:#043340;}.cls-6{fill:#a3b6bf;mix-blend-mode:multiply;}.cls-6,.cls-2{opacity:.46;}.cls-7{fill:#a2bfdc;}.cls-2,.cls-8{mix-blend-mode:screen;}.cls-8{opacity:.34;}</style></defs><g class="cls-4"><g id="Layer_2"><g id="Layer_1-2"><g><g><g><path class="cls-5" d="M113.51,55.43c5.32,9.21-1.5,23.09-15.23,31.02-13.73,7.93-29.16,6.89-34.48-2.32-5.32-9.21,1.5-23.09,15.23-31.02,13.73-7.92,29.16-6.88,34.48,2.32Z"/><path class="cls-5" d="M74.11,69.26c-2.09-2.46-7.33-11.73-23.47-40.48l11.05-8.34c12.6,12.64,28.85,29.27,31.51,31.72,.46,.42-19.09,17.1-19.09,17.1Z"/><path class="cls-1" d="M72.14,20.36c0,11.13-9.02,20.15-20.15,20.15s-20.15-9.02-20.15-20.15S40.86,.21,51.99,.21s20.15,9.02,20.15,20.15Z"/><path class="cls-6" d="M51.99,.21c-1.61,0-3.17,.19-4.67,.54,8.88,2.1,15.49,10.08,15.49,19.61s-6.61,17.5-15.49,19.61c1.5,.36,3.06,.54,4.67,.54,11.13,0,20.15-9.02,20.15-20.15S63.12,.21,51.99,.21Z"/><path class="cls-5" d="M47.32,39.97c20.86,4.08,32.66-22.22,16.83-35C59.59,1.21,53.29-.41,47.32,.76c12.14-3.52,25.4,5.66,25.5,19.61-.1,13.8-13.25,23.16-25.5,19.61Z"/><path class="cls-2" d="M51.99,18.77c0,4.6-3.72,8.32-8.32,8.32s-8.32-3.72-8.32-8.32,3.73-8.32,8.32-8.32,8.32,3.73,8.32,8.32Z"/></g><g><path class="cls-5" d="M314.11,58c-5.32,9.21,1.5,23.09,15.23,31.02,13.73,7.92,29.16,6.88,34.48-2.32,5.32-9.21-1.5-23.09-15.23-31.02-13.73-7.93-29.16-6.89-34.48,2.32Z"/><path class="cls-5" d="M353.51,71.83c2.09-2.46,7.33-11.73,23.47-40.49l-11.05-8.34c-13.38,13.42-30.19,30.39-31.03,30.88-.09,.05,18.61,17.94,18.61,17.94Z"/><path class="cls-1" d="M355.47,22.93c0,11.13,9.02,20.15,20.15,20.15s20.15-9.02,20.15-20.15-9.02-20.15-20.15-20.15-20.15,9.02-20.15,20.15Z"/><path class="cls-6" d="M375.63,2.78c1.61,0,3.17,.19,4.67,.54-8.88,2.1-15.49,10.08-15.49,19.61s6.61,17.5,15.49,19.61c-1.5,.35-3.06,.54-4.67,.54-11.13,0-20.15-9.02-20.15-20.15s9.02-20.15,20.15-20.15Z"/><path class="cls-5" d="M380.29,42.54c-20.86,4.08-32.66-22.22-16.83-35,4.56-3.76,10.86-5.38,16.83-4.21-12.14-3.52-25.4,5.66-25.5,19.61,.1,13.8,13.25,23.16,25.5,19.61Z"/><path class="cls-2" d="M375.63,21.34c0,4.59,3.73,8.32,8.32,8.32s8.32-3.72,8.32-8.32-3.72-8.32-8.32-8.32-8.32,3.72-8.32,8.32Z"/></g><g><g><path class="cls-5" d="M0,188.91c0,52.64,95.02,95.31,212.23,95.31s212.23-42.67,212.23-95.31-95.02-95.31-212.23-95.31S0,136.26,0,188.91Z"/><g><path class="cls-7" d="M399.69,233.64c-3.76,3.17-7.92,6.24-12.43,9.19,11-31.63,15.76-66.74,14.61-96.77,3.47,3.09,6.57,6.28,9.29,9.54-.1,24.76-3.85,52.09-11.46,78.03Z"/><path class="cls-7" d="M13.37,155.54c2.73-3.28,5.85-6.47,9.33-9.57-1.78,30.31,4.29,66.03,16.41,98.09-4.7-2.97-9.03-6.07-12.96-9.27-8.49-26.43-12.91-54.24-12.78-79.24Z"/></g></g><path class="cls-7" d="M154.55,323.92c39.31-5.45,79.19-6.29,118.82-2.44,91.15,8.86,123.59-127.67,110.59-196.39-6.63-35.04-45.68-60.15-78.65-67.95-59.76-14.13-123.59-15.02-183.66-2.42-32.23,6.86-64.11,28.73-76.66,60.15-26.21,65.65,20.51,221.4,109.55,209.04Z"/><path class="cls-6" d="M45,114.88c6.2-15.53,17.13-28.73,30.49-38.93-4.48,5.97-8.23,12.48-11.01,19.46-26.21,65.65,20.51,221.4,109.55,209.04,39.31-5.45,79.19-6.29,118.83-2.44,21.62,2.1,39.94-3.98,55.14-15.4-18.08,23.31-42.76,37.96-74.61,34.87-39.63-3.85-79.52-3.01-118.82,2.44C65.51,336.27,18.79,180.52,45,114.88Z"/><path class="cls-1" d="M293.22,109.09c-53.86-4.19-107.96-4.19-161.82,0-86.36,6.71-116.1,149.46,40.11,170.86,49.55,6.79,109.05,3.24,152.48-23.67,68-42.13,43.76-141.39-30.77-147.19Z"/><path class="cls-5" d="M214.78,280.58c-14.15,0-28.6-1-42.95-2.96-82.05-11.24-110.1-55.57-108.99-93.3,1.13-38.58,30.69-69.91,68.75-72.87,26.74-2.08,53.9-3.13,80.72-3.13h0c26.82,0,53.98,1.05,80.72,3.13,32.57,2.53,58.62,24.78,66.38,56.67,8.14,33.49-6.25,67.31-36.67,86.16-35.08,21.74-78.08,26.3-107.97,26.3h0Z"/></g><g class="cls-8"><path class="cls-7" d="M227.3,74.48c.92,8.17,25.66,12.1,54.79,15.87,29.16,3.5,54.11,5.78,57.01-1.92,2.94-7.49-20.29-23.26-53.36-27.32-33.05-4.19-59.45,5.39-58.44,13.38Z"/></g></g><g><path class="cls-3" d="M212.55,190.43c31.21,0,57.58,24.45,61.35,56.87,.28,2.45-1.47,4.67-3.92,4.96-1.23,.14-29.33-18.91-57.43-18.91s-56.2,19.05-57.43,18.92c-2.45-.29-4.21-2.5-3.92-4.96,3.77-32.43,30.15-56.88,61.35-56.88Z"/><path class="cls-3" d="M142.79,152.44c0,5.37-4.36,9.73-9.73,9.73s-9.73-4.36-9.73-9.73,4.36-9.73,9.73-9.73,9.73,4.35,9.73,9.73Z"/><path class="cls-3" d="M301.77,152.44c0,5.37-4.35,9.73-9.73,9.73s-9.73-4.36-9.73-9.73,4.35-9.73,9.73-9.73,9.73,4.35,9.73,9.73Z"/></g></g></g></g></g></svg>