<?xml version="1.0" encoding="UTF-8"?><svg id="Layer_2" xmlns="http://www.w3.org/2000/svg" viewBox="0 0 61.53 52.22"><defs><style>.cls-1{fill:#9841ff;}</style></defs><g id="Layer_1-2"><g><path class="cls-1" d="M43.96,9.25c-2.57,1.76-3.16,5.38-1.32,8.07,1.84,2.69,5.43,3.45,8,1.69,2.57-1.76,3.16-5.38,1.32-8.07-1.84-2.69-5.43-3.45-8-1.69Zm5.01,7.32c-1.29,.88-3.08,.5-4-.85-.92-1.35-.62-3.16,.66-4.04,1.29-.88,3.08-.5,4,.85,.92,1.35,.62,3.16-.66,4.04Z"/><path class="cls-1" d="M19.63,35.07c-1.98,1.36-2.44,4.15-1.02,6.22,1.42,2.07,4.18,2.66,6.17,1.3,1.98-1.36,2.44-4.14,1.02-6.22-1.42-2.07-4.18-2.66-6.17-1.3Zm3.83,2.9c.5,.73,.34,1.71-.36,2.18-.7,.48-1.67,.27-2.16-.46-.5-.73-.34-1.71,.36-2.18,.7-.48,1.67-.27,2.16,.46Z"/><path class="cls-1" d="M61.36,23.59c-3.66-7.23-4.52-19.2-4.52-19.32-.05-.74-.64-1.35-1.37-1.41-16.94-1.47-24.4,5.22-30.97,16.5-1.18,2.03-2.51,3.63-3.88,4.88h0c-.06,.06-.11,.11-.17,.15,0,0-.01,0-.02,.02-5.83,5.17-12.47,4.22-12.81,4.17-.51-.08-1.02,.12-1.33,.53-.3,.41-.36,.96-.15,1.45,2.37,5.43,15.07,20.5,15.61,21.14,.48,.57,1.29,.7,1.88,.31,.39-.25,.75-.5,1.11-.74,7.63-5.22,8.62-8.32,10.07-12.88,.14-.46,.3-.94,.46-1.43,0,0,0-.02,0-.02,.49-1.48,1.1-3.15,2.03-5.13,.93-1.97,2.63-3.36,4.69-4.34,0,0,.01,0,.02,0,.12-.06,.25-.11,.38-.17,6.89-3.01,17.42-1.64,17.56-1.62,.52,.07,1.03-.15,1.32-.59,.29-.43,.32-1,.08-1.48Zm-29.28,13.78c-1.36,4.29-2.15,6.75-8.95,11.4l-.09,.06c-2.51-3.02-9.96-12.1-13.14-17.26,2.69-.08,7.04-.77,11.2-3.9,1.57,2.54,5.19,7.37,11,9.61,0,.03-.02,.06-.03,.08Zm2.64-6.93c-.73,1.54-1.27,2.9-1.71,4.12-5.28-2.05-8.55-6.77-9.74-8.78,1.32-1.31,2.57-2.91,3.71-4.87,1.43-2.47,2.89-4.68,4.48-6.6,1.77,1.35,5.63,4.81,8.3,10.99-2.16,1.19-3.97,2.85-5.04,5.14Zm7.63-6.29c-2.82-6.5-6.81-10.26-8.97-11.94,4.78-4.75,10.9-7.16,20.7-6.53,.29,3.05,1.24,10.71,3.7,16.86-3.48-.25-10.03-.35-15.43,1.61Z"/><path class="cls-1" d="M14.76,19.19c4.76-2.56,6.45-8.69,3.77-13.67C15.85,.54,9.8-1.44,5.05,1.12,.29,3.68-1.41,9.81,1.27,14.79c2.68,4.98,8.73,6.96,13.49,4.4ZM3.76,13.46c-1.91-3.55-.7-7.91,2.69-9.73,3.39-1.82,7.69-.42,9.6,3.13,1.91,3.55,.7,7.91-2.69,9.73s-7.69,.42-9.6-3.13Z"/><path class="cls-1" d="M7.14,5.02c-2.7,1.45-3.67,4.94-2.14,7.77,.39,.72,1.26,1,1.94,.63s.93-1.25,.54-1.97c-.75-1.39-.28-3.11,1.06-3.83,.69-.37,.93-1.25,.54-1.97-.39-.72-1.26-1-1.94-.63Z"/><path class="cls-1" d="M10.43,22.4c-.77,.13-1.28,.88-1.12,1.68,.15,.8,.9,1.34,1.68,1.22,2.46-.4,4.44-1.11,6.05-1.98,5.4-2.9,6.44-7.51,6.49-7.76,.16-.78-.33-1.58-1.1-1.78-.77-.2-1.53,.28-1.69,1.06-.01,.06-1.38,6.1-10.3,7.57Z"/></g></g></svg>